<mxfile host="app.diagrams.net" modified="2023-04-03T04:29:50.323Z" agent="Mozilla/5.0 (Windows NT 10.0; Win64; x64; rv:109.0) Gecko/20100101 Firefox/111.0" etag="M0WbRx2LNONhKNhi92va" version="21.1.2" type="device">
  <diagram name="第 1 页" id="ImPz-SqCA0APS55kvlCO">
    <mxGraphModel dx="1461" dy="733" grid="1" gridSize="10" guides="1" tooltips="1" connect="1" arrows="1" fold="1" page="1" pageScale="1" pageWidth="827" pageHeight="1169" math="0" shadow="0">
      <root>
        <mxCell id="0" />
        <mxCell id="1" parent="0" />
        <mxCell id="WxL0sIS4q4MNxNGR3fZJ-3" value="" style="edgeStyle=orthogonalEdgeStyle;rounded=0;orthogonalLoop=1;jettySize=auto;html=1;" parent="1" source="WxL0sIS4q4MNxNGR3fZJ-1" target="WxL0sIS4q4MNxNGR3fZJ-2" edge="1">
          <mxGeometry relative="1" as="geometry" />
        </mxCell>
        <mxCell id="WxL0sIS4q4MNxNGR3fZJ-1" value="void del(int idx)" style="ellipse;whiteSpace=wrap;html=1;aspect=fixed;" parent="1" vertex="1">
          <mxGeometry x="240" y="30" width="80" height="80" as="geometry" />
        </mxCell>
        <mxCell id="WxL0sIS4q4MNxNGR3fZJ-5" value="" style="edgeStyle=orthogonalEdgeStyle;rounded=0;orthogonalLoop=1;jettySize=auto;html=1;" parent="1" source="WxL0sIS4q4MNxNGR3fZJ-2" target="WxL0sIS4q4MNxNGR3fZJ-4" edge="1">
          <mxGeometry relative="1" as="geometry" />
        </mxCell>
        <mxCell id="WxL0sIS4q4MNxNGR3fZJ-8" value="" style="edgeStyle=orthogonalEdgeStyle;rounded=0;orthogonalLoop=1;jettySize=auto;html=1;" parent="1" source="WxL0sIS4q4MNxNGR3fZJ-2" target="WxL0sIS4q4MNxNGR3fZJ-7" edge="1">
          <mxGeometry relative="1" as="geometry">
            <Array as="points">
              <mxPoint x="160" y="200" />
              <mxPoint x="160" y="490" />
            </Array>
          </mxGeometry>
        </mxCell>
        <mxCell id="WxL0sIS4q4MNxNGR3fZJ-2" value="从idx + 1到size - 1循环" style="rhombus;whiteSpace=wrap;html=1;" parent="1" vertex="1">
          <mxGeometry x="225" y="150" width="110" height="100" as="geometry" />
        </mxCell>
        <mxCell id="WxL0sIS4q4MNxNGR3fZJ-6" style="edgeStyle=orthogonalEdgeStyle;rounded=0;orthogonalLoop=1;jettySize=auto;html=1;entryX=1;entryY=0.5;entryDx=0;entryDy=0;" parent="1" source="WxL0sIS4q4MNxNGR3fZJ-4" target="WxL0sIS4q4MNxNGR3fZJ-2" edge="1">
          <mxGeometry relative="1" as="geometry">
            <Array as="points">
              <mxPoint x="400" y="350" />
              <mxPoint x="400" y="200" />
            </Array>
          </mxGeometry>
        </mxCell>
        <mxCell id="WxL0sIS4q4MNxNGR3fZJ-4" value="把当前位置的用下一个位置的treeNode覆盖" style="whiteSpace=wrap;html=1;" parent="1" vertex="1">
          <mxGeometry x="220" y="320" width="120" height="60" as="geometry" />
        </mxCell>
        <mxCell id="WxL0sIS4q4MNxNGR3fZJ-11" value="" style="edgeStyle=orthogonalEdgeStyle;rounded=0;orthogonalLoop=1;jettySize=auto;html=1;" parent="1" source="WxL0sIS4q4MNxNGR3fZJ-7" target="WxL0sIS4q4MNxNGR3fZJ-10" edge="1">
          <mxGeometry relative="1" as="geometry" />
        </mxCell>
        <mxCell id="WxL0sIS4q4MNxNGR3fZJ-7" value="size--" style="whiteSpace=wrap;html=1;" parent="1" vertex="1">
          <mxGeometry x="220" y="460" width="120" height="60" as="geometry" />
        </mxCell>
        <mxCell id="WxL0sIS4q4MNxNGR3fZJ-10" value="return" style="ellipse;whiteSpace=wrap;html=1;" parent="1" vertex="1">
          <mxGeometry x="240" y="590" width="80" height="80" as="geometry" />
        </mxCell>
        <mxCell id="WxL0sIS4q4MNxNGR3fZJ-14" value="" style="edgeStyle=orthogonalEdgeStyle;rounded=0;orthogonalLoop=1;jettySize=auto;html=1;" parent="1" source="WxL0sIS4q4MNxNGR3fZJ-12" target="WxL0sIS4q4MNxNGR3fZJ-13" edge="1">
          <mxGeometry relative="1" as="geometry" />
        </mxCell>
        <mxCell id="WxL0sIS4q4MNxNGR3fZJ-12" value="void insert(BinNode* binNode)" style="ellipse;whiteSpace=wrap;html=1;aspect=fixed;" parent="1" vertex="1">
          <mxGeometry x="550" y="30" width="100" height="100" as="geometry" />
        </mxCell>
        <mxCell id="WxL0sIS4q4MNxNGR3fZJ-16" value="" style="edgeStyle=orthogonalEdgeStyle;rounded=0;orthogonalLoop=1;jettySize=auto;html=1;" parent="1" source="WxL0sIS4q4MNxNGR3fZJ-13" target="WxL0sIS4q4MNxNGR3fZJ-15" edge="1">
          <mxGeometry relative="1" as="geometry" />
        </mxCell>
        <mxCell id="WxL0sIS4q4MNxNGR3fZJ-20" value="" style="edgeStyle=orthogonalEdgeStyle;rounded=0;orthogonalLoop=1;jettySize=auto;html=1;" parent="1" source="WxL0sIS4q4MNxNGR3fZJ-13" target="WxL0sIS4q4MNxNGR3fZJ-19" edge="1">
          <mxGeometry relative="1" as="geometry" />
        </mxCell>
        <mxCell id="WxL0sIS4q4MNxNGR3fZJ-13" value="判断队列是否为空" style="rhombus;whiteSpace=wrap;html=1;" parent="1" vertex="1">
          <mxGeometry x="560" y="220" width="80" height="80" as="geometry" />
        </mxCell>
        <mxCell id="WxL0sIS4q4MNxNGR3fZJ-18" value="" style="edgeStyle=orthogonalEdgeStyle;rounded=0;orthogonalLoop=1;jettySize=auto;html=1;" parent="1" source="WxL0sIS4q4MNxNGR3fZJ-15" target="WxL0sIS4q4MNxNGR3fZJ-17" edge="1">
          <mxGeometry relative="1" as="geometry" />
        </mxCell>
        <mxCell id="WxL0sIS4q4MNxNGR3fZJ-15" value="&lt;div&gt;若为空，queue[0] = binNode&lt;/div&gt;&lt;div&gt;&lt;br&gt;&lt;/div&gt;" style="whiteSpace=wrap;html=1;" parent="1" vertex="1">
          <mxGeometry x="540" y="390" width="120" height="60" as="geometry" />
        </mxCell>
        <mxCell id="WxL0sIS4q4MNxNGR3fZJ-17" value="return" style="ellipse;whiteSpace=wrap;html=1;" parent="1" vertex="1">
          <mxGeometry x="560" y="585" width="80" height="80" as="geometry" />
        </mxCell>
        <mxCell id="WxL0sIS4q4MNxNGR3fZJ-22" value="" style="edgeStyle=orthogonalEdgeStyle;rounded=0;orthogonalLoop=1;jettySize=auto;html=1;" parent="1" source="WxL0sIS4q4MNxNGR3fZJ-19" target="WxL0sIS4q4MNxNGR3fZJ-21" edge="1">
          <mxGeometry relative="1" as="geometry" />
        </mxCell>
        <mxCell id="WxL0sIS4q4MNxNGR3fZJ-26" style="edgeStyle=orthogonalEdgeStyle;rounded=0;orthogonalLoop=1;jettySize=auto;html=1;" parent="1" source="WxL0sIS4q4MNxNGR3fZJ-19" target="WxL0sIS4q4MNxNGR3fZJ-27" edge="1">
          <mxGeometry relative="1" as="geometry">
            <mxPoint x="880" y="500" as="targetPoint" />
            <Array as="points">
              <mxPoint x="760" y="200" />
              <mxPoint x="880" y="200" />
            </Array>
          </mxGeometry>
        </mxCell>
        <mxCell id="WxL0sIS4q4MNxNGR3fZJ-19" value="从0到size - 1循环" style="rhombus;whiteSpace=wrap;html=1;" parent="1" vertex="1">
          <mxGeometry x="720" y="220" width="80" height="80" as="geometry" />
        </mxCell>
        <mxCell id="WxL0sIS4q4MNxNGR3fZJ-24" value="" style="edgeStyle=orthogonalEdgeStyle;rounded=0;orthogonalLoop=1;jettySize=auto;html=1;" parent="1" source="WxL0sIS4q4MNxNGR3fZJ-21" target="WxL0sIS4q4MNxNGR3fZJ-23" edge="1">
          <mxGeometry relative="1" as="geometry" />
        </mxCell>
        <mxCell id="WxL0sIS4q4MNxNGR3fZJ-25" style="edgeStyle=orthogonalEdgeStyle;rounded=0;orthogonalLoop=1;jettySize=auto;html=1;entryX=1;entryY=0.5;entryDx=0;entryDy=0;" parent="1" source="WxL0sIS4q4MNxNGR3fZJ-21" target="WxL0sIS4q4MNxNGR3fZJ-19" edge="1">
          <mxGeometry relative="1" as="geometry">
            <Array as="points">
              <mxPoint x="820" y="370" />
              <mxPoint x="820" y="260" />
            </Array>
          </mxGeometry>
        </mxCell>
        <mxCell id="WxL0sIS4q4MNxNGR3fZJ-21" value="如果当前queue[i]-&amp;gt;weigh大于binNode-&amp;gt;weigh" style="rhombus;whiteSpace=wrap;html=1;" parent="1" vertex="1">
          <mxGeometry x="720" y="330" width="80" height="80" as="geometry" />
        </mxCell>
        <mxCell id="WxL0sIS4q4MNxNGR3fZJ-29" style="edgeStyle=orthogonalEdgeStyle;rounded=0;orthogonalLoop=1;jettySize=auto;html=1;" parent="1" source="WxL0sIS4q4MNxNGR3fZJ-23" target="WxL0sIS4q4MNxNGR3fZJ-17" edge="1">
          <mxGeometry relative="1" as="geometry" />
        </mxCell>
        <mxCell id="WxL0sIS4q4MNxNGR3fZJ-23" value="将node插入到当前位置，并且后面的所有Node全部往后移动" style="whiteSpace=wrap;html=1;" parent="1" vertex="1">
          <mxGeometry x="700" y="500" width="120" height="60" as="geometry" />
        </mxCell>
        <mxCell id="WxL0sIS4q4MNxNGR3fZJ-28" style="edgeStyle=orthogonalEdgeStyle;rounded=0;orthogonalLoop=1;jettySize=auto;html=1;" parent="1" source="WxL0sIS4q4MNxNGR3fZJ-27" target="WxL0sIS4q4MNxNGR3fZJ-17" edge="1">
          <mxGeometry relative="1" as="geometry">
            <Array as="points">
              <mxPoint x="890" y="600" />
            </Array>
          </mxGeometry>
        </mxCell>
        <mxCell id="WxL0sIS4q4MNxNGR3fZJ-27" value="若遍历整个队列后没有找到比binNode的weigh更大的node，就在最后插入当前的binNode" style="rounded=0;whiteSpace=wrap;html=1;" parent="1" vertex="1">
          <mxGeometry x="830" y="470" width="120" height="60" as="geometry" />
        </mxCell>
        <mxCell id="WxL0sIS4q4MNxNGR3fZJ-32" value="" style="edgeStyle=orthogonalEdgeStyle;rounded=0;orthogonalLoop=1;jettySize=auto;html=1;" parent="1" source="WxL0sIS4q4MNxNGR3fZJ-30" target="WxL0sIS4q4MNxNGR3fZJ-31" edge="1">
          <mxGeometry relative="1" as="geometry" />
        </mxCell>
        <mxCell id="WxL0sIS4q4MNxNGR3fZJ-30" value="BinNode* createTree(int l, int r)" style="ellipse;whiteSpace=wrap;html=1;aspect=fixed;" parent="1" vertex="1">
          <mxGeometry x="1070" y="60" width="80" height="80" as="geometry" />
        </mxCell>
        <mxCell id="WxL0sIS4q4MNxNGR3fZJ-35" value="" style="edgeStyle=orthogonalEdgeStyle;rounded=0;orthogonalLoop=1;jettySize=auto;html=1;" parent="1" source="WxL0sIS4q4MNxNGR3fZJ-31" target="WxL0sIS4q4MNxNGR3fZJ-34" edge="1">
          <mxGeometry relative="1" as="geometry" />
        </mxCell>
        <mxCell id="WxL0sIS4q4MNxNGR3fZJ-31" value="&lt;div&gt;sum = 两个weigh之和&lt;/div&gt;&lt;div&gt;root的左子树为queue[l]&lt;/div&gt;&lt;div&gt;root的右子树为queue[r]&lt;/div&gt;&lt;div&gt;root-&amp;gt;word = &#39;#&lt;/div&gt;&lt;div&gt;insert(root)&lt;/div&gt;&lt;div&gt;del(0)&lt;/div&gt;&lt;div&gt;del(0)&lt;/div&gt;" style="whiteSpace=wrap;html=1;" parent="1" vertex="1">
          <mxGeometry x="1050" y="230" width="120" height="150" as="geometry" />
        </mxCell>
        <mxCell id="WxL0sIS4q4MNxNGR3fZJ-34" value="return root" style="ellipse;whiteSpace=wrap;html=1;" parent="1" vertex="1">
          <mxGeometry x="1070" y="430" width="80" height="80" as="geometry" />
        </mxCell>
        <mxCell id="v-fjP0y7w3UaJYiKi-yB-3" value="" style="edgeStyle=orthogonalEdgeStyle;rounded=0;orthogonalLoop=1;jettySize=auto;html=1;" edge="1" parent="1" source="v-fjP0y7w3UaJYiKi-yB-1" target="v-fjP0y7w3UaJYiKi-yB-2">
          <mxGeometry relative="1" as="geometry" />
        </mxCell>
        <mxCell id="v-fjP0y7w3UaJYiKi-yB-1" value="void preorder(BinNode* root)" style="ellipse;whiteSpace=wrap;html=1;aspect=fixed;" vertex="1" parent="1">
          <mxGeometry x="220" y="690" width="80" height="80" as="geometry" />
        </mxCell>
        <mxCell id="v-fjP0y7w3UaJYiKi-yB-5" value="" style="edgeStyle=orthogonalEdgeStyle;rounded=0;orthogonalLoop=1;jettySize=auto;html=1;" edge="1" parent="1" source="v-fjP0y7w3UaJYiKi-yB-2" target="v-fjP0y7w3UaJYiKi-yB-4">
          <mxGeometry relative="1" as="geometry" />
        </mxCell>
        <mxCell id="v-fjP0y7w3UaJYiKi-yB-9" value="" style="edgeStyle=orthogonalEdgeStyle;rounded=0;orthogonalLoop=1;jettySize=auto;html=1;" edge="1" parent="1" source="v-fjP0y7w3UaJYiKi-yB-2" target="v-fjP0y7w3UaJYiKi-yB-8">
          <mxGeometry relative="1" as="geometry" />
        </mxCell>
        <mxCell id="v-fjP0y7w3UaJYiKi-yB-2" value="判断当前root-&amp;gt;word是否等于#" style="rhombus;whiteSpace=wrap;html=1;" vertex="1" parent="1">
          <mxGeometry x="220" y="850" width="80" height="80" as="geometry" />
        </mxCell>
        <mxCell id="v-fjP0y7w3UaJYiKi-yB-7" value="" style="edgeStyle=orthogonalEdgeStyle;rounded=0;orthogonalLoop=1;jettySize=auto;html=1;" edge="1" parent="1" source="v-fjP0y7w3UaJYiKi-yB-4" target="v-fjP0y7w3UaJYiKi-yB-6">
          <mxGeometry relative="1" as="geometry" />
        </mxCell>
        <mxCell id="v-fjP0y7w3UaJYiKi-yB-4" value="输出word对应的编码" style="whiteSpace=wrap;html=1;" vertex="1" parent="1">
          <mxGeometry x="200" y="980" width="120" height="60" as="geometry" />
        </mxCell>
        <mxCell id="v-fjP0y7w3UaJYiKi-yB-6" value="&lt;div&gt;return&lt;/div&gt;" style="ellipse;whiteSpace=wrap;html=1;" vertex="1" parent="1">
          <mxGeometry x="220" y="1080" width="80" height="80" as="geometry" />
        </mxCell>
        <mxCell id="v-fjP0y7w3UaJYiKi-yB-13" value="" style="edgeStyle=orthogonalEdgeStyle;rounded=0;orthogonalLoop=1;jettySize=auto;html=1;" edge="1" parent="1" source="v-fjP0y7w3UaJYiKi-yB-8" target="v-fjP0y7w3UaJYiKi-yB-12">
          <mxGeometry relative="1" as="geometry" />
        </mxCell>
        <mxCell id="v-fjP0y7w3UaJYiKi-yB-8" value="若lchild不为空" style="rhombus;whiteSpace=wrap;html=1;" vertex="1" parent="1">
          <mxGeometry x="380" y="850" width="80" height="80" as="geometry" />
        </mxCell>
        <mxCell id="v-fjP0y7w3UaJYiKi-yB-10" value="N" style="text;html=1;strokeColor=none;fillColor=none;align=center;verticalAlign=middle;whiteSpace=wrap;rounded=0;" vertex="1" parent="1">
          <mxGeometry x="300" y="850" width="60" height="30" as="geometry" />
        </mxCell>
        <mxCell id="v-fjP0y7w3UaJYiKi-yB-11" value="Y" style="text;html=1;strokeColor=none;fillColor=none;align=center;verticalAlign=middle;whiteSpace=wrap;rounded=0;" vertex="1" parent="1">
          <mxGeometry x="260" y="930" width="60" height="30" as="geometry" />
        </mxCell>
        <mxCell id="v-fjP0y7w3UaJYiKi-yB-15" value="" style="edgeStyle=orthogonalEdgeStyle;rounded=0;orthogonalLoop=1;jettySize=auto;html=1;" edge="1" parent="1" source="v-fjP0y7w3UaJYiKi-yB-12" target="v-fjP0y7w3UaJYiKi-yB-14">
          <mxGeometry relative="1" as="geometry" />
        </mxCell>
        <mxCell id="v-fjP0y7w3UaJYiKi-yB-12" value="在lchild的编码上追加&quot;0&quot;" style="whiteSpace=wrap;html=1;" vertex="1" parent="1">
          <mxGeometry x="360" y="960" width="120" height="60" as="geometry" />
        </mxCell>
        <mxCell id="v-fjP0y7w3UaJYiKi-yB-18" value="" style="edgeStyle=orthogonalEdgeStyle;rounded=0;orthogonalLoop=1;jettySize=auto;html=1;" edge="1" parent="1" source="v-fjP0y7w3UaJYiKi-yB-14" target="v-fjP0y7w3UaJYiKi-yB-17">
          <mxGeometry relative="1" as="geometry" />
        </mxCell>
        <mxCell id="v-fjP0y7w3UaJYiKi-yB-14" value="preorder(root-&amp;gt;lchild)" style="whiteSpace=wrap;html=1;" vertex="1" parent="1">
          <mxGeometry x="360" y="1060" width="120" height="60" as="geometry" />
        </mxCell>
        <mxCell id="v-fjP0y7w3UaJYiKi-yB-20" value="" style="edgeStyle=orthogonalEdgeStyle;rounded=0;orthogonalLoop=1;jettySize=auto;html=1;" edge="1" parent="1" source="v-fjP0y7w3UaJYiKi-yB-17" target="v-fjP0y7w3UaJYiKi-yB-19">
          <mxGeometry relative="1" as="geometry" />
        </mxCell>
        <mxCell id="v-fjP0y7w3UaJYiKi-yB-17" value="若rchild不为空" style="rhombus;whiteSpace=wrap;html=1;" vertex="1" parent="1">
          <mxGeometry x="380" y="1160" width="80" height="80" as="geometry" />
        </mxCell>
        <mxCell id="v-fjP0y7w3UaJYiKi-yB-21" style="edgeStyle=orthogonalEdgeStyle;rounded=0;orthogonalLoop=1;jettySize=auto;html=1;entryX=0.35;entryY=1.013;entryDx=0;entryDy=0;entryPerimeter=0;" edge="1" parent="1" source="v-fjP0y7w3UaJYiKi-yB-19" target="v-fjP0y7w3UaJYiKi-yB-6">
          <mxGeometry relative="1" as="geometry" />
        </mxCell>
        <mxCell id="v-fjP0y7w3UaJYiKi-yB-19" value="preorder(root-&amp;gt;rchild)" style="whiteSpace=wrap;html=1;" vertex="1" parent="1">
          <mxGeometry x="360" y="1280" width="120" height="60" as="geometry" />
        </mxCell>
        <mxCell id="v-fjP0y7w3UaJYiKi-yB-26" value="" style="edgeStyle=orthogonalEdgeStyle;rounded=0;orthogonalLoop=1;jettySize=auto;html=1;" edge="1" parent="1" source="v-fjP0y7w3UaJYiKi-yB-22" target="v-fjP0y7w3UaJYiKi-yB-25">
          <mxGeometry relative="1" as="geometry" />
        </mxCell>
        <mxCell id="v-fjP0y7w3UaJYiKi-yB-22" value="&lt;div&gt;main&lt;/div&gt;" style="ellipse;whiteSpace=wrap;html=1;aspect=fixed;" vertex="1" parent="1">
          <mxGeometry x="810" y="720" width="80" height="80" as="geometry" />
        </mxCell>
        <mxCell id="v-fjP0y7w3UaJYiKi-yB-28" value="" style="edgeStyle=orthogonalEdgeStyle;rounded=0;orthogonalLoop=1;jettySize=auto;html=1;" edge="1" parent="1" source="v-fjP0y7w3UaJYiKi-yB-25" target="v-fjP0y7w3UaJYiKi-yB-27">
          <mxGeometry relative="1" as="geometry" />
        </mxCell>
        <mxCell id="v-fjP0y7w3UaJYiKi-yB-31" value="" style="edgeStyle=orthogonalEdgeStyle;rounded=0;orthogonalLoop=1;jettySize=auto;html=1;" edge="1" parent="1" source="v-fjP0y7w3UaJYiKi-yB-25" target="v-fjP0y7w3UaJYiKi-yB-30">
          <mxGeometry relative="1" as="geometry" />
        </mxCell>
        <mxCell id="v-fjP0y7w3UaJYiKi-yB-25" value="从0到N(字符总数)循环" style="rhombus;whiteSpace=wrap;html=1;" vertex="1" parent="1">
          <mxGeometry x="810" y="880" width="80" height="80" as="geometry" />
        </mxCell>
        <mxCell id="v-fjP0y7w3UaJYiKi-yB-29" style="edgeStyle=orthogonalEdgeStyle;rounded=0;orthogonalLoop=1;jettySize=auto;html=1;entryX=1;entryY=0.5;entryDx=0;entryDy=0;" edge="1" parent="1" source="v-fjP0y7w3UaJYiKi-yB-27" target="v-fjP0y7w3UaJYiKi-yB-25">
          <mxGeometry relative="1" as="geometry">
            <Array as="points">
              <mxPoint x="850" y="1140" />
              <mxPoint x="990" y="1140" />
              <mxPoint x="990" y="920" />
            </Array>
          </mxGeometry>
        </mxCell>
        <mxCell id="v-fjP0y7w3UaJYiKi-yB-27" value="在内存中新开辟一个BinNode，对它的权重和字符名赋值，并插入到顺序队列中" style="whiteSpace=wrap;html=1;" vertex="1" parent="1">
          <mxGeometry x="790" y="1050" width="120" height="60" as="geometry" />
        </mxCell>
        <mxCell id="v-fjP0y7w3UaJYiKi-yB-33" value="" style="edgeStyle=orthogonalEdgeStyle;rounded=0;orthogonalLoop=1;jettySize=auto;html=1;" edge="1" parent="1" source="v-fjP0y7w3UaJYiKi-yB-30" target="v-fjP0y7w3UaJYiKi-yB-32">
          <mxGeometry relative="1" as="geometry" />
        </mxCell>
        <mxCell id="v-fjP0y7w3UaJYiKi-yB-38" value="" style="edgeStyle=orthogonalEdgeStyle;rounded=0;orthogonalLoop=1;jettySize=auto;html=1;" edge="1" parent="1" source="v-fjP0y7w3UaJYiKi-yB-30" target="v-fjP0y7w3UaJYiKi-yB-37">
          <mxGeometry relative="1" as="geometry">
            <Array as="points">
              <mxPoint x="620" y="1150" />
              <mxPoint x="620" y="1470" />
            </Array>
          </mxGeometry>
        </mxCell>
        <mxCell id="v-fjP0y7w3UaJYiKi-yB-30" value="size &amp;gt; 1" style="rhombus;whiteSpace=wrap;html=1;" vertex="1" parent="1">
          <mxGeometry x="700" y="1110" width="80" height="80" as="geometry" />
        </mxCell>
        <mxCell id="v-fjP0y7w3UaJYiKi-yB-34" style="edgeStyle=orthogonalEdgeStyle;rounded=0;orthogonalLoop=1;jettySize=auto;html=1;entryX=1;entryY=0.5;entryDx=0;entryDy=0;" edge="1" parent="1" source="v-fjP0y7w3UaJYiKi-yB-32" target="v-fjP0y7w3UaJYiKi-yB-30">
          <mxGeometry relative="1" as="geometry">
            <Array as="points">
              <mxPoint x="740" y="1350" />
              <mxPoint x="890" y="1350" />
              <mxPoint x="890" y="1150" />
            </Array>
          </mxGeometry>
        </mxCell>
        <mxCell id="v-fjP0y7w3UaJYiKi-yB-32" value="&lt;div&gt;createTree(0,1)&lt;/div&gt;&lt;div&gt;在首部的两个树的根权值是队列中最小的，将它们取出并创建新树&lt;br&gt;&lt;/div&gt;" style="whiteSpace=wrap;html=1;" vertex="1" parent="1">
          <mxGeometry x="680" y="1250" width="120" height="90" as="geometry" />
        </mxCell>
        <mxCell id="v-fjP0y7w3UaJYiKi-yB-40" value="" style="edgeStyle=orthogonalEdgeStyle;rounded=0;orthogonalLoop=1;jettySize=auto;html=1;" edge="1" parent="1" source="v-fjP0y7w3UaJYiKi-yB-37" target="v-fjP0y7w3UaJYiKi-yB-39">
          <mxGeometry relative="1" as="geometry" />
        </mxCell>
        <mxCell id="v-fjP0y7w3UaJYiKi-yB-37" value="preorder(queue[0]" style="whiteSpace=wrap;html=1;" vertex="1" parent="1">
          <mxGeometry x="670" y="1440" width="120" height="60" as="geometry" />
        </mxCell>
        <mxCell id="v-fjP0y7w3UaJYiKi-yB-39" value="&lt;div&gt;return&lt;/div&gt;&lt;div&gt;&lt;br&gt;&lt;/div&gt;" style="ellipse;whiteSpace=wrap;html=1;" vertex="1" parent="1">
          <mxGeometry x="690" y="1570" width="80" height="80" as="geometry" />
        </mxCell>
      </root>
    </mxGraphModel>
  </diagram>
</mxfile>
